<svg width="57" height="20" viewBox="0 0 57 20" fill="none" xmlns="http://www.w3.org/2000/svg">
<path d="M18.248 16.1992L17.5903 16.9524L18.2885 17.5621L18.9493 16.9121L18.248 16.1992ZM33.0386 1.64982L33.5941 0.818343L32.9175 0.366233L32.3373 0.936928L33.0386 1.64982ZM55.5631 17.5499C56.1048 17.4421 56.4565 16.9157 56.3488 16.374L54.5928 7.54698C54.485 7.00531 53.9585 6.65356 53.4169 6.76132C52.8752 6.86907 52.5234 7.39554 52.6312 7.93721L54.1921 15.7835L46.3458 17.3444C45.8042 17.4521 45.4524 17.9786 45.5602 18.5202C45.6679 19.0619 46.1944 19.4137 46.7361 19.3059L55.5631 17.5499ZM0.563761 2.08594L17.5903 16.9524L18.9057 15.4459L1.87918 0.579401L0.563761 2.08594ZM18.9493 16.9121L33.7399 2.36272L32.3373 0.936928L17.5467 15.4863L18.9493 16.9121ZM32.483 2.48131L54.8124 17.4006L55.9235 15.7376L33.5941 0.818343L32.483 2.48131Z" fill="#064E89"/>
</svg>
